<svg width="16" height="16" viewBox="0 0 16 16" fill="none" xmlns="http://www.w3.org/2000/svg">
<path d="M14.2222 0H1.77778C0.795938 0 0 0.795938 0 1.77778V14.2222C0 15.2041 0.795938 16 1.77778 16H14.2222C15.2041 16 16 15.2041 16 14.2222V1.77778C16 0.795938 15.2041 0 14.2222 0Z" fill="#4460A0"/>
<path fill-rule="evenodd" clip-rule="evenodd" d="M13.4366 2.98162V5.05062L12.2086 5.05382C11.246 5.05382 11.0606 5.51111 11.0606 6.17945V7.66005H13.3534L13.056 9.97528H11.0606V16H8.66891V9.97528H6.66675V7.66005H8.66891V5.95241C8.66891 3.96975 9.87737 2.88889 11.649 2.88889C12.4935 2.88889 13.2223 2.95284 13.4366 2.98162Z" fill="white"/>
</svg>
